<svg width="50" height="50" viewBox="0 0 50 50" fill="none" xmlns="http://www.w3.org/2000/svg">
<rect width="50" height="50" fill="white"/>
<path d="M5.57406 34V31.288H9.10206V19.192H5.57406V16.48H15.6541V19.192H12.1261V31.288H15.6541V34H5.57406ZM19.2447 36.64L27.6447 14.08H30.7647L22.3647 36.64H19.2447ZM39.3953 34.24C37.7153 34.24 36.3793 33.76 35.3873 32.8C34.4113 31.84 33.9233 30.512 33.9233 28.816V21.664C33.9233 19.968 34.4113 18.64 35.3873 17.68C36.3793 16.72 37.7153 16.24 39.3953 16.24C41.0753 16.24 42.4033 16.72 43.3793 17.68C44.3713 18.64 44.8673 19.96 44.8673 21.64V28.816C44.8673 30.512 44.3713 31.84 43.3793 32.8C42.4033 33.76 41.0753 34.24 39.3953 34.24ZM39.3953 31.6C40.2113 31.6 40.8273 31.384 41.2433 30.952C41.6593 30.504 41.8673 29.872 41.8673 29.056V21.424C41.8673 20.608 41.6593 19.984 41.2433 19.552C40.8273 19.104 40.2113 18.88 39.3953 18.88C38.5793 18.88 37.9633 19.104 37.5473 19.552C37.1313 19.984 36.9233 20.608 36.9233 21.424V29.056C36.9233 29.872 37.1313 30.504 37.5473 30.952C37.9633 31.384 38.5793 31.6 39.3953 31.6Z" fill="black"/>
</svg>
